<svg width="53" height="54" viewBox="0 0 53 54" fill="none" xmlns="http://www.w3.org/2000/svg">
<path d="M52.7452 44.0021C52.5558 42.6486 51.7591 41.4979 50.5571 40.843L46.5186 38.6427C46.0782 38.4023 45.5266 38.5651 45.2866 39.0058C45.0469 39.4462 45.2094 39.9978 45.6499 40.2376L49.6879 42.4378C50.3789 42.8142 50.8367 43.475 50.9462 44.2523C50.9468 44.2573 50.9474 44.2622 50.9481 44.2671C51.054 45.0522 50.7868 45.8181 50.2153 46.3676L49.62 46.9391L34.711 38.5501L36.4631 37.0088C37.2106 36.3512 38.2987 36.2298 39.1716 36.7066L41.6914 38.0799C42.1318 38.3197 42.6834 38.1575 42.9235 37.717C43.1634 37.2766 43.0011 36.725 42.5606 36.4849L40.0414 35.112C38.5019 34.2714 36.5815 34.4854 35.2636 35.6449L31.1804 39.2365C30.3441 39.9721 29.1234 40.0404 28.2122 39.4021C22.0619 35.0935 17.5956 30.3534 14.558 24.9116C14.0458 23.9928 14.1889 22.8596 14.9139 22.0921L18.1459 18.6736C19.3511 17.3976 19.6336 15.486 18.849 13.9167L13.41 3.03868C12.804 1.82526 11.6912 0.989393 10.357 0.745281C9.02186 0.500684 7.68445 0.889012 6.68717 1.80988L4.62141 3.71835C2.33794 5.82769 0.82677 8.55555 0.251361 11.6067C-0.325137 14.663 0.0944319 17.746 1.46454 20.5235C1.47059 20.5363 1.47628 20.5475 1.48101 20.5567C2.3492 22.3124 3.288 24.0293 4.26953 25.6569C4.43336 25.9308 4.61003 26.2202 4.79433 26.5172C5.0589 26.9432 5.61869 27.0742 6.04492 26.8098C6.47103 26.5452 6.60205 25.9853 6.33759 25.5592C6.1585 25.2706 5.98704 24.9897 5.8266 24.7216C4.87049 23.1362 3.95725 21.4662 3.11218 19.7577C3.10746 19.7478 3.10261 19.7381 3.09765 19.7284C0.710284 14.8979 1.77694 8.97076 5.67802 5.22177L13.868 20.5546L13.5938 20.8447C12.3213 22.1917 12.0712 24.1817 12.9717 25.7966C16.1461 31.4835 20.7902 36.4205 27.1701 40.8899C27.9025 41.4028 28.7482 41.6558 29.5911 41.6558C30.5897 41.6558 31.5841 41.3003 32.38 40.6003L33.266 39.821L48.2516 48.253L48.2365 48.2676C44.3738 51.9787 38.5873 52.8233 33.838 50.369C23.5437 45.048 15.175 38.014 8.96459 29.463C8.66974 29.0571 8.10184 28.9669 7.69607 29.2619C7.29019 29.5568 7.20022 30.1245 7.49495 30.5304C13.8734 39.3127 22.4558 46.5303 33.0039 51.9829C35.0802 53.0557 37.3285 53.5784 39.5621 53.5784C43.1808 53.5784 46.7594 52.2056 49.4944 49.5779L51.4735 47.6775C52.4606 46.7283 52.9256 45.4091 52.7518 44.0536C52.7501 44.0363 52.7478 44.0193 52.7452 44.0021ZM7.05431 3.94345L7.9196 3.14415C8.49307 2.61463 9.26198 2.39171 10.03 2.53193C10.797 2.67227 11.4367 3.15275 11.7852 3.85069L17.2245 14.7292C17.6693 15.619 17.509 16.7029 16.8258 17.4262L15.1838 19.163L7.05431 3.94345Z" fill="#CB8734"/>
</svg>
