<svg width="238" height="32" viewBox="0 0 238 32" fill="none" xmlns="http://www.w3.org/2000/svg">
<path d="M135.41 31.3824C134.543 31.3824 133.825 31.0971 133.254 30.5265C132.684 29.9453 132.409 29.2374 132.409 28.3815C132.409 27.5256 132.684 26.8071 133.254 26.2365C133.825 25.6659 134.543 25.3806 135.41 25.3806C135.928 25.3806 136.414 25.4968 136.857 25.7504C137.301 25.9935 137.65 26.321 137.904 26.7437L136.625 27.4728C136.519 27.272 136.35 27.1135 136.139 26.9973C135.917 26.8705 135.674 26.8177 135.41 26.8177C134.945 26.8177 134.575 26.955 134.29 27.2509C134.015 27.5362 133.867 27.9166 133.867 28.3815C133.867 28.8464 134.015 29.2268 134.29 29.5121C134.575 29.7974 134.945 29.9453 135.41 29.9453C135.674 29.9453 135.917 29.8819 136.139 29.7657C136.35 29.6495 136.519 29.4804 136.625 29.2797L137.904 30.0193C137.65 30.442 137.301 30.7695 136.857 31.0126C136.414 31.2556 135.938 31.3824 135.41 31.3824ZM154.25 30.5159C153.669 31.0865 152.95 31.3824 152.105 31.3824C151.26 31.3824 150.552 31.0865 149.97 30.5159C149.379 29.9348 149.093 29.2268 149.093 28.3815C149.093 27.5362 149.379 26.8282 149.97 26.2471C150.552 25.6659 151.26 25.3806 152.105 25.3806C152.95 25.3806 153.669 25.6659 154.25 26.2471C154.831 26.8282 155.127 27.5362 155.127 28.3815C155.127 29.2268 154.831 29.9348 154.25 30.5159ZM150.995 29.5016C151.291 29.7974 151.661 29.9453 152.105 29.9453C152.549 29.9453 152.919 29.7974 153.214 29.5016C153.51 29.2057 153.658 28.8359 153.658 28.3815C153.658 27.9271 153.51 27.5467 153.214 27.2615C152.919 26.9656 152.549 26.8177 152.105 26.8177C151.661 26.8177 151.291 26.9656 150.995 27.2615C150.7 27.5467 150.552 27.9271 150.552 28.3815C150.552 28.8359 150.7 29.2057 150.995 29.5016ZM172.699 25.4968V31.2556H171.241V28.1596L169.836 30.4631H169.688L168.303 28.1702V31.2556H166.824V25.4968H168.303L169.762 27.9588L171.241 25.4968H172.699ZM186.869 25.4968C187.45 25.4968 187.936 25.687 188.337 26.0674C188.728 26.4478 188.929 26.9339 188.929 27.515C188.929 28.1068 188.728 28.5823 188.337 28.9627C187.936 29.3431 187.45 29.5333 186.869 29.5333H186.108V31.2556H184.629V25.4968H186.869ZM186.869 28.1279C187.038 28.1279 187.175 28.0751 187.281 27.9588C187.397 27.8426 187.45 27.6947 187.45 27.515C187.45 27.3354 187.397 27.1875 187.281 27.0713C187.175 26.9656 187.038 26.9022 186.869 26.9022H186.108V28.1279H186.869ZM203.574 31.2556L203.289 30.4314H201.334L201.091 31.2556H199.496L201.324 25.4968H203.183L205.085 31.2556H203.574ZM201.715 29.1634H202.877L202.285 27.1981L201.715 29.1634ZM219.699 25.4968H221.157V31.2556H220.026L217.998 28.3604V31.2556H216.529V25.4968H217.67L219.699 28.3921V25.4968ZM238 25.4968L236.056 29.0472V31.2556H234.587V29.0578L232.643 25.4968H234.291L235.316 27.6313L236.341 25.4968H238Z" fill="#2B2A28"/>
<path fill-rule="evenodd" clip-rule="evenodd" d="M165.028 0.0632324L180.941 17.8678H174.908L158.994 0.0632324H165.028Z" fill="#CB8734"/>
<path fill-rule="evenodd" clip-rule="evenodd" d="M182.769 0.0632324L198.682 17.8678H192.659L176.746 0.0632324H182.769Z" fill="#CB8734"/>
<path fill-rule="evenodd" clip-rule="evenodd" d="M200.563 0.0632324L216.476 17.8678H210.442L194.529 0.0632324H200.563Z" fill="#CB8734"/>
<path fill-rule="evenodd" clip-rule="evenodd" d="M228.173 11.7817L233.604 17.868H228.754L223.313 11.7817L219.392 7.45995H231.576C232.442 7.45995 233.161 6.752 233.161 5.88554C233.161 5.02966 232.442 4.31113 231.576 4.31113H216.92L212.598 0H231.576C234.819 0 237.472 2.65219 237.472 5.88554C237.472 9.12946 234.819 11.7817 231.576 11.7817H228.173ZM0 0.063399H12.2254H16.5366H28.762V4.37453H16.5366V17.868H12.2254V4.37453H0V0.063399ZM50.7087 0.063399H64.6776C69.3163 0.063399 73.1097 3.85678 73.1097 8.48491V9.43589C73.1097 14.0746 69.3163 17.868 64.6776 17.868H50.7087C46.07 17.868 42.2766 14.0746 42.2766 9.43589V8.48491C42.2766 3.85678 46.07 0.063399 50.7087 0.063399ZM50.7087 4.37453H64.6776C66.9388 4.37453 68.788 6.22367 68.788 8.48491V9.43589C68.788 11.6971 66.9388 13.5463 64.6776 13.5463H50.7087C48.4474 13.5463 46.5983 11.6971 46.5983 9.43589V8.48491C46.5983 6.22367 48.4474 4.37453 50.7087 4.37453ZM93.6087 0.063399V9.62609L93.6932 9.53099L108.497 0.063399H116.221L104.323 7.49165L119.063 17.868H111.255L100.139 10.1016L93.6087 14.1803V17.868H89.287V14.1803V0.063399H93.6087ZM146.6 0.0950986L162.872 17.868H142.648L146.959 13.5463H153.066L146.642 6.51954L136.276 17.868H130.697L146.6 0.0950986Z" fill="#2B2A28"/>
</svg>
