<svg width="26" height="26" viewBox="0 0 26 26" fill="none" xmlns="http://www.w3.org/2000/svg">
<path d="M2.37143 25.05H23.6286C24.0056 25.05 24.3671 24.9002 24.6337 24.6337C24.9002 24.3671 25.05 24.0056 25.05 23.6286V17.2651C25.05 17.1609 25.0086 17.061 24.9349 16.9874C24.8613 16.9137 24.7613 16.8723 24.6571 16.8723C24.553 16.8723 24.453 16.9137 24.3794 16.9874C24.3057 17.061 24.2643 17.1609 24.2643 17.2651V23.6286C24.2643 23.7972 24.1973 23.9589 24.0781 24.0781C23.9589 24.1973 23.7972 24.2643 23.6286 24.2643H2.37143C2.20283 24.2643 2.04113 24.1973 1.92191 24.0781C1.80269 23.9589 1.73571 23.7972 1.73571 23.6286V2.37143C1.73571 2.20283 1.80269 2.04113 1.92191 1.92191C2.04113 1.80269 2.20283 1.73571 2.37143 1.73571H23.6286C23.7972 1.73571 23.9589 1.80269 24.0781 1.92191C24.1973 2.04113 24.2643 2.20283 24.2643 2.37143V8.04914C24.2643 8.15334 24.3057 8.25326 24.3794 8.32694C24.453 8.40061 24.553 8.442 24.6571 8.442C24.7613 8.442 24.8613 8.40061 24.9349 8.32694C25.0086 8.25326 25.05 8.15334 25.05 8.04914V2.37143C25.05 1.99444 24.9002 1.6329 24.6337 1.36633C24.3671 1.09976 24.0056 0.95 23.6286 0.95H2.37143C1.99444 0.95 1.6329 1.09976 1.36633 1.36633C1.09976 1.6329 0.95 1.99444 0.95 2.37143V23.6286C0.95 24.0056 1.09976 24.3671 1.36633 24.6337C1.6329 24.9002 1.99444 25.05 2.37143 25.05Z" fill="#2B2A28" stroke="#2B2A28" stroke-width="0.1"/>
</svg>
